<svg width="21" height="21" viewBox="0 0 21 21" fill="none" xmlns="http://www.w3.org/2000/svg">
<path fill-rule="evenodd" clip-rule="evenodd" d="M9 6.4707H4.47059C2.00155 6.4707 0 8.47225 0 10.9413V16.5295C0 18.9986 2.00155 21.0001 4.47059 21.0001H10.0588C12.5279 21.0001 14.5294 18.9986 14.5294 16.5295V11.1539H13.0392V16.5295C13.0392 18.1756 11.7048 19.5099 10.0588 19.5099H4.47059C2.82456 19.5099 1.4902 18.1756 1.4902 16.5295V10.9413C1.4902 9.29526 2.82456 7.9609 4.47059 7.9609H9V6.4707Z" fill="#424242"/>
<line x1="7.16045" y1="14.0952" x2="15.6454" y2="4.72003" stroke="#424242" stroke-width="1.4902"/>
<path d="M16.8329 3.44815L15.4073 10.0718L10.3838 5.52537L16.8329 3.44815Z" fill="#424242"/>
</svg>
