<svg width="432" height="108" viewBox="0 0 432 108" fill="none" xmlns="http://www.w3.org/2000/svg">
<path d="M45.7437 23.4092C47.1893 23.4092 48.1114 24.0821 48.5102 25.428L64.8099 75H57.0339L52.1739 59.2985H31.6123L26.7523 75H19.0511L35.3508 25.428C35.6997 24.0821 36.6219 23.4092 38.1173 23.4092H45.7437ZM39.6126 33.5031L33.5563 53.0926H50.3046L44.1736 33.5031C43.7249 32.0575 43.3262 30.612 42.9773 29.1665H40.8837C40.6843 29.8643 40.4849 30.5871 40.2856 31.3348C40.0862 32.0825 39.8619 32.8052 39.6126 33.5031ZM86.4129 38.1388C90.2511 38.1388 93.2917 38.4129 95.5348 38.9612C97.8277 39.5095 99.4726 40.4815 100.47 41.8772C101.466 43.2729 101.965 45.2668 101.965 47.8588C101.965 50.4508 101.342 52.4197 100.096 53.7655C98.8495 55.1114 96.8308 55.884 94.0394 56.0834V56.3077C97.4788 56.6068 99.8714 57.5788 101.217 59.2237C102.563 60.8188 103.236 63.0868 103.236 66.0277C103.236 68.52 102.738 70.464 101.741 71.8597C100.744 73.2055 99.1486 74.1526 96.9554 74.7009C94.812 75.2492 91.9957 75.5234 88.5065 75.5234C85.8148 75.5234 83.4969 75.4985 81.5529 75.4486C79.6588 75.4486 77.8643 75.4237 76.1695 75.3738C74.5246 75.324 72.8298 75.2243 71.0852 75.0748V38.5874C72.6305 38.4378 74.1258 38.3381 75.5714 38.2883C77.0668 38.2385 78.6619 38.2135 80.3566 38.2135C82.1012 38.1637 84.12 38.1388 86.4129 38.1388ZM86.1886 43.5221C84.5437 43.5221 83.0234 43.5221 81.6277 43.5221C80.2819 43.5221 79.0357 43.5221 77.8892 43.5221V53.7655H87.0859C90.0268 53.7655 92.0954 53.4166 93.2917 52.7188C94.488 52.0209 95.0862 50.6252 95.0862 48.5317C95.0862 46.5378 94.4132 45.2169 93.0674 44.5689C91.7714 43.8711 89.4785 43.5221 86.1886 43.5221ZM87.0859 58.6255H77.8892V70.0652C79.1852 70.0652 80.6308 70.0652 82.2259 70.0652C83.8708 70.0652 85.5905 70.0652 87.3849 70.0652C90.5751 70.0652 92.7932 69.7163 94.0394 69.0185C95.3354 68.2708 95.9834 66.7505 95.9834 64.4575C95.9834 62.2643 95.3105 60.744 93.9646 59.8966C92.6686 59.0492 90.3757 58.6255 87.0859 58.6255ZM141.872 38.5126V44.3446H128.862V75H121.609V44.3446H108.6V38.5126H141.872ZM164.772 37.6154C169.009 37.6154 172.399 38.2385 174.941 39.4846C177.533 40.7308 179.402 42.7745 180.549 45.6157C181.695 48.4071 182.268 52.1206 182.268 56.7563C182.268 61.4418 181.695 65.2052 180.549 68.0465C179.402 70.8378 177.533 72.8566 174.941 74.1028C172.399 75.3489 169.009 75.972 164.772 75.972C160.485 75.972 157.046 75.3489 154.454 74.1028C151.912 72.8566 150.068 70.8378 148.921 68.0465C147.775 65.2052 147.201 61.4418 147.201 56.7563C147.201 52.1206 147.775 48.4071 148.921 45.6157C150.068 42.7745 151.912 40.7308 154.454 39.4846C157.046 38.2385 160.485 37.6154 164.772 37.6154ZM164.772 43.4474C162.23 43.4474 160.236 43.8461 158.791 44.6437C157.345 45.4412 156.298 46.812 155.65 48.756C155.052 50.6501 154.753 53.3169 154.753 56.7563C154.753 60.1957 155.052 62.8874 155.65 64.8314C156.298 66.7754 157.345 68.1462 158.791 68.9437C160.236 69.6914 162.23 70.0652 164.772 70.0652C167.265 70.0652 169.233 69.6914 170.679 68.9437C172.125 68.1462 173.146 66.7754 173.745 64.8314C174.343 62.8874 174.642 60.1957 174.642 56.7563C174.642 53.3169 174.343 50.6501 173.745 48.756C173.146 46.812 172.125 45.4412 170.679 44.6437C169.233 43.8461 167.265 43.4474 164.772 43.4474Z" fill="#419421"/>
<path d="M198.956 38.5126V69.4671H213.312V38.5126H219.817V69.4671H234.247V38.5126H241.201V75H191.928V38.5126H198.956ZM259.858 38.5126V49.0551C259.858 50.5006 259.708 51.9212 259.409 53.3169H264.12C266.412 53.3169 268.257 52.7686 269.652 51.672C271.048 50.5754 272.244 48.9305 273.241 46.7372C274.238 44.544 275.335 41.8025 276.531 38.5126H284.008C282.612 42.3009 281.366 45.4412 280.27 47.9335C279.173 50.376 277.877 52.2452 276.382 53.5412C274.886 54.7874 272.818 55.56 270.176 55.8591V56.1582C272.269 56.3575 273.989 56.8311 275.335 57.5788C276.731 58.3265 277.927 59.448 278.924 60.9434C279.921 62.3889 280.893 64.2831 281.84 66.6258C282.787 68.9188 283.859 71.7102 285.055 75H277.503C276.008 70.9625 274.712 67.7474 273.615 65.3548C272.519 62.9622 271.272 61.2674 269.877 60.2705C268.481 59.2237 266.562 58.7252 264.12 58.7751H259.484C259.733 59.9714 259.858 61.1178 259.858 62.2145V75H252.605V38.5126H259.858ZM308.688 37.6154C312.925 37.6154 316.315 38.2385 318.857 39.4846C321.449 40.7308 323.318 42.7745 324.465 45.6157C325.611 48.4071 326.184 52.1206 326.184 56.7563C326.184 61.4418 325.611 65.2052 324.465 68.0465C323.318 70.8378 321.449 72.8566 318.857 74.1028C316.315 75.3489 312.925 75.972 308.688 75.972C304.402 75.972 300.962 75.3489 298.37 74.1028C295.828 72.8566 293.984 70.8378 292.837 68.0465C291.691 65.2052 291.118 61.4418 291.118 56.7563C291.118 52.1206 291.691 48.4071 292.837 45.6157C293.984 42.7745 295.828 40.7308 298.37 39.4846C300.962 38.2385 304.402 37.6154 308.688 37.6154ZM308.688 43.4474C306.146 43.4474 304.152 43.8461 302.707 44.6437C301.261 45.4412 300.215 46.812 299.567 48.756C298.968 50.6501 298.669 53.3169 298.669 56.7563C298.669 60.1957 298.968 62.8874 299.567 64.8314C300.215 66.7754 301.261 68.1462 302.707 68.9437C304.152 69.6914 306.146 70.0652 308.688 70.0652C311.181 70.0652 313.15 69.6914 314.595 68.9437C316.041 68.1462 317.063 66.7754 317.661 64.8314C318.259 62.8874 318.558 60.1957 318.558 56.7563C318.558 53.3169 318.259 50.6501 317.661 48.756C317.063 46.812 316.041 45.4412 314.595 44.6437C313.15 43.8461 311.181 43.4474 308.688 43.4474ZM366.289 38.5126V75H359.037V43.9708H351.709C350.164 43.9708 349.068 44.3197 348.42 45.0175C347.772 45.6655 347.348 46.7871 347.148 48.3821C346.75 51.6221 346.301 54.9369 345.803 58.3265C345.304 61.716 344.631 64.632 343.784 67.0745C342.887 69.9655 341.391 72.084 339.298 73.4298C337.254 74.7757 334.712 75.4237 331.671 75.3738L330.924 69.9157C332.868 69.4671 334.288 68.8689 335.185 68.1212C336.083 67.3735 336.78 66.3268 337.279 64.9809C337.877 63.5354 338.376 61.7658 338.774 59.6723C339.173 57.5289 339.497 55.3606 339.746 53.1674C339.996 50.9243 340.195 48.9055 340.344 47.1111C340.693 44.2698 341.616 42.1265 343.111 40.6809C344.606 39.2354 346.874 38.5126 349.915 38.5126H366.289ZM395.328 37.6154C399.516 37.6154 402.681 38.4877 404.824 40.2323C407.017 41.9271 408.114 45.0425 408.114 49.5785V75H402.432L401.609 68.9437C400.662 69.9406 399.441 70.9625 397.945 72.0092C396.5 73.056 394.83 73.9283 392.936 74.6262C391.042 75.324 388.998 75.6729 386.805 75.6729C383.515 75.6729 380.848 74.8006 378.804 73.056C376.761 71.3114 375.739 68.7942 375.739 65.5043V61.5415C375.739 58.7003 376.636 56.4821 378.431 54.8871C380.225 53.292 382.767 52.4945 386.057 52.4945H400.936V49.5785C400.886 47.4351 400.363 45.8898 399.366 44.9428C398.419 43.9957 396.55 43.5221 393.758 43.5221C391.814 43.5221 389.422 43.6218 386.58 43.8212C383.739 43.9708 380.898 44.1701 378.057 44.4194L377.384 39.2603C379.079 38.9612 380.973 38.6871 383.066 38.4378C385.16 38.1886 387.278 37.9892 389.422 37.8397C391.565 37.6901 393.534 37.6154 395.328 37.6154ZM388.45 69.7662C390.194 69.816 392.188 69.4172 394.431 68.5698C396.724 67.6726 398.892 66.3517 400.936 64.6071V57.5788L387.627 57.6535C385.932 57.7034 384.736 58.152 384.038 58.9994C383.34 59.7969 382.992 60.9185 382.992 62.364V64.6071C382.992 68.0465 384.811 69.7662 388.45 69.7662Z" fill="#5D5D5D"/>
<path d="M198.67 91.5363C200.016 91.5363 201.096 91.744 201.91 92.1594C202.725 92.5748 203.306 93.2477 203.655 94.1781C204.021 95.1086 204.203 96.3464 204.203 97.8917C204.203 99.4369 204.021 100.675 203.655 101.605C203.306 102.536 202.725 103.209 201.91 103.624C201.096 104.039 200.016 104.247 198.67 104.247C197.308 104.247 196.22 104.039 195.405 103.624C194.608 103.209 194.026 102.536 193.661 101.605C193.295 100.675 193.113 99.4369 193.113 97.8917C193.113 96.3464 193.295 95.1086 193.661 94.1781C194.026 93.2477 194.608 92.5748 195.405 92.1594C196.22 91.744 197.308 91.5363 198.67 91.5363ZM198.67 92.9071C197.69 92.9071 196.917 93.0566 196.353 93.3557C195.788 93.6548 195.381 94.1698 195.131 94.9009C194.899 95.632 194.782 96.6289 194.782 97.8917C194.782 99.1711 194.899 100.176 195.131 100.907C195.381 101.622 195.788 102.129 196.353 102.428C196.917 102.727 197.69 102.876 198.67 102.876C199.634 102.876 200.398 102.727 200.963 102.428C201.528 102.129 201.935 101.622 202.185 100.907C202.434 100.176 202.558 99.1711 202.558 97.8917C202.558 96.6289 202.434 95.632 202.185 94.9009C201.935 94.1698 201.528 93.6548 200.963 93.3557C200.398 93.0566 199.634 92.9071 198.67 92.9071ZM209.124 91.8354L209.249 93.8541C210.212 93.1064 211.151 92.5332 212.065 92.1344C212.995 91.7357 213.909 91.5363 214.806 91.5363C216.983 91.5363 218.071 92.6412 218.071 94.8511V103.923H216.501V95.2748C216.501 94.4108 216.335 93.8043 216.003 93.4554C215.67 93.0898 215.139 92.9071 214.408 92.9071C213.627 92.9071 212.854 93.0898 212.09 93.4554C211.325 93.8209 210.42 94.336 209.373 95.0006V103.923H207.803V91.8354H209.124ZM223.782 86.4769L223.757 100.907C223.757 102.087 224.356 102.677 225.552 102.677H226.823L226.997 103.848C226.798 103.948 226.482 104.014 226.05 104.048C225.635 104.098 225.286 104.122 225.004 104.122C224.156 104.122 223.475 103.873 222.96 103.375C222.461 102.876 222.212 102.162 222.212 101.231V86.4769H223.782ZM230.589 86.7511C230.938 86.7511 231.112 86.9255 231.112 87.2744V88.7449C231.112 89.0938 230.938 89.2683 230.589 89.2683H229.841C229.492 89.2683 229.318 89.0938 229.318 88.7449V87.2744C229.318 86.9255 229.492 86.7511 229.841 86.7511H230.589ZM230.988 91.8354V103.923H229.443V91.8354H230.988ZM236.603 91.8354L236.727 93.8541C237.691 93.1064 238.63 92.5332 239.543 92.1344C240.474 91.7357 241.388 91.5363 242.285 91.5363C244.462 91.5363 245.55 92.6412 245.55 94.8511V103.923H243.98V95.2748C243.98 94.4108 243.814 93.8043 243.481 93.4554C243.149 93.0898 242.617 92.9071 241.886 92.9071C241.105 92.9071 240.333 93.0898 239.568 93.4554C238.804 93.8209 237.899 94.336 236.852 95.0006V103.923H235.282V91.8354H236.603ZM254.476 91.5363C256.204 91.5363 257.467 91.852 258.264 92.4834C259.079 93.1148 259.494 94.0535 259.511 95.2997C259.527 96.3797 259.311 97.2104 258.863 97.792C258.431 98.3735 257.716 98.6643 256.719 98.6643H250.738C250.788 99.7609 250.962 100.617 251.261 101.231C251.577 101.83 252.034 102.253 252.632 102.502C253.23 102.735 253.986 102.851 254.9 102.851C255.598 102.851 256.32 102.826 257.068 102.777C257.832 102.71 258.497 102.635 259.062 102.552L259.236 103.624C258.888 103.757 258.439 103.865 257.891 103.948C257.359 104.048 256.802 104.114 256.221 104.147C255.656 104.197 255.149 104.222 254.7 104.222C253.338 104.222 252.241 104.014 251.411 103.599C250.596 103.167 249.998 102.486 249.616 101.555C249.234 100.625 249.043 99.3871 249.043 97.8418C249.043 96.28 249.226 95.0421 249.591 94.1283C249.973 93.1978 250.563 92.5332 251.361 92.1344C252.158 91.7357 253.197 91.5363 254.476 91.5363ZM254.551 92.9071C253.62 92.9071 252.873 93.0483 252.308 93.3308C251.76 93.5966 251.361 94.0618 251.112 94.7264C250.862 95.3744 250.729 96.2717 250.713 97.4181H256.37C256.985 97.4181 257.4 97.2188 257.616 96.82C257.832 96.4212 257.932 95.9228 257.916 95.3246C257.899 94.4772 257.625 93.8624 257.093 93.4803C256.561 93.0981 255.714 92.9071 254.551 92.9071Z" fill="#8C8C8C"/>
<line x1="71" y1="98.6538" x2="145.564" y2="98.6538" stroke="url(#paint0_linear)" stroke-width="2.07692"/>
<line y1="-1.03846" x2="74.5637" y2="-1.03846" transform="matrix(-1 -8.27936e-08 -9.23108e-08 1 360.482 99.6923)" stroke="url(#paint1_linear)" stroke-width="2.07692"/>
<ellipse cx="174.073" cy="97.6154" rx="6.57915" ry="6.23077" fill="#61BD52"/>
<defs>
<linearGradient id="paint0_linear" x1="145.564" y1="100.693" x2="75.3861" y2="100.693" gradientUnits="userSpaceOnUse">
<stop stop-color="#C0C0C0"/>
<stop offset="1" stop-color="#DBDBDB" stop-opacity="0"/>
</linearGradient>
<linearGradient id="paint1_linear" x1="74.5637" y1="1.00048" x2="4.3861" y2="1.00043" gradientUnits="userSpaceOnUse">
<stop stop-color="#C0C0C0"/>
<stop offset="1" stop-color="#DBDBDB" stop-opacity="0"/>
</linearGradient>
</defs>
</svg>
